<svg xmlns="http://www.w3.org/2000/svg" xmlns:xlink="http://www.w3.org/1999/xlink" id="Capa_1" width="487.688" height="487.688" x="0" y="0" version="1.1" viewBox="0 0 487.688 487.688" style="enable-background:new 0 0 487.688 487.688" xml:space="preserve"><g><path d="M133.727,210.375h219.938v-86.062H133.727V210.375z M249.557,145.732c10.52,0,19.049,8.53,19.049,19.049 c0,10.519-8.529,19.048-19.049,19.048c-10.519,0-19.048-8.53-19.048-19.048C230.509,154.262,239.038,145.732,249.557,145.732z"/><path d="M420.602,487.688v-45.719v-45.718V47.812H66.789v348.438v45.718v45.719h47.812v-47.812h258.188v47.812H420.602z M114.602,105.188h258.188V229.5H114.602V105.188z M114.602,382.5V258.188h258.188V382.5H114.602z"/><polygon points="419.109 28.688 449.586 0 38.102 0 68.587 28.688"/></g></svg>