<svg xmlns="http://www.w3.org/2000/svg" xmlns:xlink="http://www.w3.org/1999/xlink" id="Capa_1" width="497.25" height="497.25" x="0" y="0" version="1.1" viewBox="0 0 497.25 497.25" style="enable-background:new 0 0 497.25 497.25" xml:space="preserve"><g><g><path d="M478.125,205.594v-86.062c0-10.566-8.559-19.125-19.125-19.125H38.25c-10.566,0-19.125,8.559-19.125,19.125v86.101 c0.134,0,0.258-0.038,0.402-0.038H478.125z"/><path d="M497.25,243.844c0-10.566-8.463-19.125-19.029-19.125h-0.096H19.527c-0.144,0-0.268,0.038-0.402,0.038 C8.74,224.977,0,233.421,0,243.844v114.75h497.25V243.844z"/><rect width="47.812" height="19.125" x="19.125" y="377.719"/><rect width="47.812" height="19.125" x="430.312" y="377.719"/></g></g></svg>