<svg xmlns="http://www.w3.org/2000/svg" xmlns:xlink="http://www.w3.org/1999/xlink" id="Capa_1" width="372.938" height="372.938" x="0" y="0" version="1.1" viewBox="0 0 372.938 372.938" style="enable-background:new 0 0 372.938 372.938" xml:space="preserve"><g><path d="M0,368.156h372.938V4.781H0V368.156z M186.469,332.297c-6.158,0-11.159-4.991-11.159-11.159s4.991-11.16,11.159-11.16 s11.159,4.992,11.159,11.16S192.627,332.297,186.469,332.297z M186.469,51.8c6.158,0,11.159,4.992,11.159,11.16 s-5.001,11.15-11.159,11.15S175.31,69.118,175.31,62.95C175.31,56.782,180.311,51.8,186.469,51.8z M47.812,119.531h277.312v133.875 H47.812V119.531z"/><rect width="19.125" height="57.375" x="133.875" y="157.781"/><rect width="19.125" height="57.375" x="219.938" y="157.781"/></g></svg>