<svg xmlns="http://www.w3.org/2000/svg" xmlns:xlink="http://www.w3.org/1999/xlink" id="Capa_1" width="430.312" height="430.312" x="0" y="0" version="1.1" viewBox="0 0 430.312 430.312" style="enable-background:new 0 0 430.312 430.312" xml:space="preserve"><g><path d="M344.25,0H86.062C75.496,0,66.938,8.559,66.938,19.125l38.25,392.062c0,10.566,8.559,19.125,19.125,19.125H306 c10.566,0,19.125-8.559,19.125-19.125l38.25-392.062C363.375,8.559,354.816,0,344.25,0z M306,385.188 c0,10.566,1.195,16.438-6.942,16.438H138.542c-8.128,0-14.229-7.363-14.229-17.93L105.188,118.47 c19.125-9.477,27.855-20.875,55.089-22.242c47.468-2.391,62.482,35.859,118.766,35.267c16.83-0.191,46.082-4.198,46.082-9.668 L306,385.188z"/></g></svg>