<svg xmlns="http://www.w3.org/2000/svg" xmlns:xlink="http://www.w3.org/1999/xlink" id="Capa_1" width="545.062" height="545.062" x="0" y="0" version="1.1" viewBox="0 0 545.062 545.062" style="enable-background:new 0 0 545.062 545.062" xml:space="preserve"><g><path d="M86.062,545.062H267.75V0H86.062V545.062z M176.906,456.609c-20.464,0-37.055-16.591-37.055-37.055 s16.591-37.055,37.055-37.055s37.055,16.591,37.055,37.055S197.37,456.609,176.906,456.609z M258.188,535.5H229.5v-9.562h19.125 V497.25h9.562V535.5z M219.938,9.562h38.25v38.25h-9.562V19.125h-28.688V9.562z M153,57.375h57.375 c10.566,0,19.125,8.559,19.125,19.125v219.938c0,10.566-8.559,19.125-19.125,19.125H153c-10.566,0-19.125-8.559-19.125-19.125V76.5 C133.875,65.934,142.434,57.375,153,57.375z M95.625,9.562h38.25v9.562h-28.688v28.688h-9.562V9.562z M95.625,497.25h9.562v28.688 h28.688v9.562h-38.25V497.25z"/><rect width="57.375" height="9.562" x="153" y="86.062"/><rect width="57.375" height="9.562" x="153" y="114.75"/><rect width="57.375" height="9.562" x="153" y="143.438"/><rect width="57.375" height="9.562" x="153" y="172.125"/><rect width="57.375" height="9.562" x="153" y="200.812"/><rect width="57.375" height="9.562" x="153" y="229.5"/><rect width="57.375" height="9.562" x="153" y="258.188"/><rect width="57.375" height="9.562" x="153" y="286.875"/><path d="M277.312,545.062H459V0H277.312V545.062z M368.156,456.609c-20.464,0-37.055-16.591-37.055-37.055 s16.591-37.055,37.055-37.055s37.055,16.591,37.055,37.055S388.62,456.609,368.156,456.609z M449.438,535.5H420.75v-9.562h19.125 V497.25h9.562V535.5z M411.188,9.562h38.25v38.25h-9.562V19.125h-28.688V9.562z M344.25,57.375h57.375 c10.566,0,19.125,8.559,19.125,19.125v219.938c0,10.566-8.559,19.125-19.125,19.125H344.25c-10.566,0-19.125-8.559-19.125-19.125 V76.5C325.125,65.934,333.684,57.375,344.25,57.375z M286.875,9.562h38.25v9.562h-28.688v28.688h-9.562V9.562z M286.875,497.25 h9.562v28.688h28.688v9.562h-38.25V497.25z"/><rect width="57.375" height="9.562" x="344.25" y="86.062"/><rect width="57.375" height="9.562" x="344.25" y="114.75"/><rect width="57.375" height="9.562" x="344.25" y="143.438"/><rect width="57.375" height="9.562" x="344.25" y="172.125"/><rect width="57.375" height="9.562" x="344.25" y="200.812"/><rect width="57.375" height="9.562" x="344.25" y="229.5"/><rect width="57.375" height="9.562" x="344.25" y="258.188"/><rect width="57.375" height="9.562" x="344.25" y="286.875"/></g></svg>