<svg xmlns="http://www.w3.org/2000/svg" xmlns:xlink="http://www.w3.org/1999/xlink" id="图层_1" width="600" height="600" x="0" y="0" enable-background="new 0 0 600 600" version="1.1" viewBox="0 0 600 600" xml:space="preserve"><g><rect width="558.173" height="83.545" x="20.911" y="258.82" fill="#CECECE"/><g><rect width="374.479" height="83.544" x="111.123" y="258.819" fill="#293C54"/><path fill="#C23531" d="M133.018,349.399c0,0.895-0.807,1.615-1.806,1.615H91.055c-1.009,0-1.826-0.721-1.826-1.615v-97.613 c0-0.896,0.817-1.615,1.826-1.615h40.157c0.999,0,1.806,0.719,1.806,1.615V349.399z"/><path fill="#C23531" d="M510.757,349.399c0,0.895-0.809,1.615-1.807,1.615h-40.155c-1.01,0-1.817-0.721-1.817-1.615v-97.613 c0-0.896,0.808-1.615,1.817-1.615h40.155c0.998,0,1.807,0.719,1.807,1.615V349.399z"/></g></g></svg>