<svg xmlns="http://www.w3.org/2000/svg" enable-background="new 0 0 64 64" viewBox="0 0 64 64"><path fill="#f0f0f0" d="m15.5 15.5h33v33h-33z"/><path fill="#646464" d="m48 16v32h-32v-32h32m1-1h-34v34h34v-34z"/><path fill="#d9f1ff" d="m19.5 19.5h25v25h-25z"/><path fill="#7aadcc" d="m44 20v24h-24v-24h24m1-1h-26v26h26v-26z"/><path fill="#ececed" d="m10.5 53.5v-43h43v43h-43m4-4h35v-35h-35v35"/><path fill="#9b9c9e" d="m53 11v42h-42v-42h42m-39 39h36v-36h-36v36m40-40h-44v44h44v-44zm-39 39v-34h34v34h-34"/><path fill="#c8c8c8" d="m14.5 14.5h35v25h-35z"/><path fill="#646464" d="m49 15v24h-34v-24h34m1-1h-36v26h36v-26z"/><path d="m15 19h34v1h-34z" opacity=".25"/><path d="m15 23h34v1h-34z" opacity=".25"/><path d="m15 27h34v1h-34z" opacity=".25"/><path d="m15 31h34v1h-34z" opacity=".25"/><path d="m15 35h34v1h-34z" opacity=".25"/><path fill="#282828" d="m14 14h36v4h-36z"/></svg>