<svg xmlns="http://www.w3.org/2000/svg" enable-background="new 0 0 64 64" viewBox="0 0 64 64"><path fill="#ececed" d="m47.5 58.5v-51h-31v51h-4v-55h39v55z"/><path fill="#9b9c9e" d="m51 4v54h-3v-51h-32v51h-3v-54h38m1-1h-40v56h5v-51h30v51h5v-56z"/><path fill="#646464" d="m17.5 58.61v-50.22l15-3.75v57.72z"/><path fill="#282828" d="m32 5.28v56.44l-14-3.5v-49.44l14-3.5m1-1.28-16 4v51l16 4v-59z"/><ellipse cx="30.5" cy="34" fill="#dcdcf0" rx=".5" ry="1"/><path fill="#282828" d="m26 12v43l-4-1v-41l4-1m1-1.28-6 1.5v42.56l6 1.5v-45.56z"/><path fill="#d9f1ff" d="m22.5 53.61v-40.22l3-.75v41.72z"/><path fill="#7aadcc" d="m25 13.28v40.44l-2-.5v-39.44l2-.5m1-1.28l-4 1v41l4 1v-43z"/><path fill="#dcdcf0" d="m27.5 12.5h2v42h-2z"/><path fill="#595959" d="m29 13v41h-1v-41h1m1-1h-3v43h3v-43z"/></svg>