<svg xmlns="http://www.w3.org/2000/svg" enable-background="new 0 0 64 64" viewBox="0 0 64 64"><defs><linearGradient id="a" x1="3" x2="61" gradientUnits="userSpaceOnUse"><stop offset="0" stop-color="#fff" stop-opacity="0"/><stop offset=".2"/><stop offset=".8"/><stop offset="1" stop-color="#fff" stop-opacity="0"/></linearGradient></defs><path fill="url(#a)" d="m3 46h58v1h-58z"/><path fill="#f0f0f0" d="m12.5 59.5v-45.2l19.5-9.7 19.5 9.7v45.2z"/><path fill="#c8c8c8" d="M32,5.1l19,9.5V59H13V14.6L32,5.1 M32,4L12,14v46h40V14L32,4L32,4z"/><path fill="#f0f0f0" d="m12.5 33.5h39v13h-39z"/><path fill="#c8c8c8" d="m51 34v12h-38v-12h38m1-1h-40v14h40v-14z"/><path fill="#f0f0f0" d="m12.5 20.5h39v13h-39z"/><path fill="#c8c8c8" d="m51 21v12h-38v-12h38m1-1h-40v14h40v-14z"/><path fill="#f0f0f0" d="m17.4 23.4h5.1v6.1h-5.1z"/><path fill="#c8c8c8" d="m22.1 23.9v5.3h-4.3v-5.3h4.3m.9-.9h-6v7h6v-7z"/><path fill="#f0f0f0" d="m22.4 23.4h5.1v6.1h-5.1z"/><path fill="#c8c8c8" d="m27.1 23.9v5.3h-4.3v-5.3h4.3m.9-.9h-6v7h6v-7z"/><path fill="#f0f0f0" d="m40.5 36.5h6v10h-6z"/><path fill="#c8c8c8" d="m46 37v9h-5v-9h5m1-1h-7v11h7v-11z"/><path fill="#f0f0f0" d="m31.4 23.4h5.1v6.1h-5.1z"/><path fill="#c8c8c8" d="m36.1 23.9v5.3h-4.3v-5.3h4.3m.9-.9h-6v7h6v-7z"/><path fill="#f0f0f0" d="m17.4 36.4h5.1v6.1h-5.1z"/><path fill="#c8c8c8" d="m22.1 36.9v5.3h-4.3v-5.3h4.3m.9-.9h-6v7h6v-7z"/><path fill="#f0f0f0" d="m22.4 36.4h5.1v6.1h-5.1z"/><path fill="#c8c8c8" d="m27.1 36.9v5.3h-4.3v-5.3h4.3m.9-.9h-6v7h6v-7z"/><path fill="#f0f0f0" d="m31.4 36.4h5.1v6.1h-5.1z"/><path fill="#c8c8c8" d="m36.1 36.9v5.3h-4.3v-5.3h4.3m.9-.9h-6v7h6v-7z"/><path fill="#f0f0f0" d="m40.5 23.5h6.1v6.1h-6.1z"/><g fill="#c8c8c8"><path d="m46.1 23.9v5.1h-5.1v-5.1h5.1m.9-.9h-7v7h7v-7z"/><path d="m44 41h1v1h-1z"/></g><path fill="#f0f0f0" d="m12.5 20.5v-6.2l19.5-9.7 19.5 9.7v6.2z"/><path fill="#c8c8c8" d="m32 5.1 19 9.5v5.4h-38v-5.4l19-9.5m0-1.1-20 10v7h40v-7l-20-10z"/><path fill="none" stroke="#2e7de5" stroke-miterlimit="10" stroke-width="1.5" d="m58 17.5-26-13-26 13"/><path fill="#f0f0f0" d="m25.5 12.5h5v5h-5z"/><path fill="#c8c8c8" d="m30 13v4h-4v-4h4m1-1h-6v6h6v-6z"/><path fill="#f0f0f0" d="m33.5 12.5h5v5h-5z"/><path fill="#c8c8c8" d="m38 13v4h-4v-4h4m1-1h-6v6h6v-6z"/></svg>