<svg xmlns="http://www.w3.org/2000/svg" xmlns:xlink="http://www.w3.org/1999/xlink" enable-background="new 0 0 64 64" viewBox="0 0 64 64"><defs><circle id="b" cx="32" cy="32" r="27"/><clipPath id="a"><use xlink:href="#b"/></clipPath></defs><path fill="#ebebeb" d="M32,59.5C16.8,59.5,4.5,47.2,4.5,32S16.8,4.5,32,4.5S59.5,16.8,59.5,32S47.2,59.5,32,59.5z"/><path fill="#c8c8c8" d="m32 5c14.9 0 27 12.1 27 27s-12.1 27-27 27-27-12.1-27-27 12.1-27 27-27m0-1c-15.4 0-28 12.6-28 28s12.6 28 28 28 28-12.6 28-28-12.6-28-28-28z"/><g fill="#212121" stroke="#dcdcdc" stroke-miterlimit="10"><circle cx="22" cy="32" r="3.5"/><circle cx="42" cy="32" r="3.5"/></g><g fill="#8c8c8c"><path d="m30 5h4v4.9h-4z" clip-path="url(#a)"/><path d="m30 54h4v4.9h-4z" clip-path="url(#a)"/></g><g clip-path="url(#a)"><path fill="#f5f5f5" d="m-.5 34.5h11v29h-11z"/><path fill="#c8c8c8" d="m10 35v28h-10v-28h10m1-1h-12v30h12v-30z"/><path fill="#f5f5f5" d="m-.5.5h11v29h-11z"/><path fill="#c8c8c8" d="m10 1v28h-10v-28h10m1-1h-12v30h12v-30z"/></g><g clip-path="url(#a)"><path fill="#f5f5f5" d="m53.5 34.5h11v29h-11z"/><path fill="#c8c8c8" d="m64 35v28h-10v-28h10m1-1h-12v30h12v-30z"/><path fill="#f5f5f5" d="m53.5.5h11v29h-11z"/><path fill="#c8c8c8" d="m64 1v28h-10v-28h10m1-1h-12v30h12v-30z"/></g></svg>