<svg xmlns="http://www.w3.org/2000/svg" enable-background="new 0 0 64 64" viewBox="0 0 64 64"><path fill="#e7ebf4" d="m3.5 21.5h57v19h-57z"/><path fill="#c4c6cc" d="m60 22v18h-56v-18h56m1-1h-58v20h58v-20z"/><path d="m10 25h42v5h-42z"/><path d="m7 41h6v1h-6z"/><path d="m51 41h6v1h-6z"/><circle cx="7.5" cy="26.5" r="1.5" fill="#b6c7d1"/><circle cx="9" cy="37" r="1"/><path fill="#b6c7d1" d="m53.5 30.88c-1.86 0-3.38-1.51-3.38-3.38s1.51-3.38 3.38-3.38 3.38 1.51 3.38 3.38-1.52 3.38-3.38 3.38"/><path fill="#889499" d="m53.5 24.25c1.79 0 3.25 1.46 3.25 3.25s-1.46 3.25-3.25 3.25-3.25-1.46-3.25-3.25 1.46-3.25 3.25-3.25m0-.25c-1.93 0-3.5 1.57-3.5 3.5s1.57 3.5 3.5 3.5 3.5-1.57 3.5-3.5-1.57-3.5-3.5-3.5z"/><path fill="#3c3c3c" d="m6 32h52v1h-52z"/><path fill="#fff" d="m6 33h52v1h-52z"/><path fill="#899ba7" d="m47 36h11v2h-11z"/><text fill="#fff" font-family="'MyriadPro-Regular'" font-size="4" transform="translate(21 29)">POWER ON</text></svg>