<svg xmlns="http://www.w3.org/2000/svg" xmlns:xlink="http://www.w3.org/1999/xlink" enable-background="new 0 0 64 64" viewBox="0 0 64 64"><defs><linearGradient id="a" x1="54.364" x2="9.636" y1="9.636" y2="54.364" gradientUnits="userSpaceOnUse"><stop offset="0" stop-color="#f8f5e5"/><stop offset="1" stop-color="#cac7b9"/></linearGradient><linearGradient id="c" x2="0" y1="15" y2="49" gradientUnits="userSpaceOnUse"><stop offset="0" stop-color="#4e493f"/><stop offset=".768" stop-color="#3b3732"/></linearGradient><linearGradient id="b" x1="49.752" x2="14.748" y1="42.038" y2="21.828" gradientUnits="userSpaceOnUse" xlink:href="#a"/></defs><path fill="url(#a)" stroke="#7c715e" stroke-miterlimit="10" stroke-width=".25" d="m48 57h-32c-4.97 0-9-4.03-9-9v-32c0-4.97 4.03-9 9-9h32c4.97 0 9 4.03 9 9v32c0 4.97-4.03 9-9 9z"/><path fill="url(#c)" d="m44 49h-24c-2.76 0-5-2.24-5-5v-24c0-2.76 2.24-5 5-5h24c2.76 0 5 2.24 5 5v24c0 2.76-2.24 5-5 5"/><path fill="url(#b)" stroke="#7c715e" stroke-miterlimit="10" stroke-width=".25" d="m44 47h-24c-2.76 0-5-2.24-5-5l1-21c0-2.76 2.24-5 5-5h22c2.76 0 5 2.24 5 5l1 21c0 2.76-2.24 5-5 5z"/></svg>