<svg xmlns="http://www.w3.org/2000/svg" xmlns:xlink="http://www.w3.org/1999/xlink" viewBox="0 0 64 64"><defs><path id="b" d="m45.896 1023.6c0 7.7323-6.2677 14-13.999 14-7.7316 0-13.999-6.268-13.999-14s6.2677-14.001 13.999-14.001c7.7316 0 13.999 6.2687 13.999 14.001"/><path id="a" fill="none" d="m46 62.362c0 3.866-3.134 7-7 7s-7-3.134-7-7 3.134-7 7-7 7 3.134 7 7"/><linearGradient id="f" x2="0" y1="73.362" y2="70.362" gradientTransform="matrix(1.9999 0 0 1.2424 -47.993 955.22)" gradientUnits="userSpaceOnUse"><stop offset="0" stop-color="#fff"/><stop offset="1" stop-color="#ccc"/></linearGradient><linearGradient id="g" x2="0" y1="73.362" y2="70.362" gradientTransform="matrix(1.9999 0 0 2.0001 -47.871 861.63)" gradientUnits="userSpaceOnUse"><stop offset="0" stop-color="#fff"/><stop offset="1" stop-color="#cdcdcd"/></linearGradient><linearGradient id="h" x2="0" y1="48.362" y2="51.362" gradientTransform="matrix(1.9999 0 0 1.3169 -47.993 934.7)" gradientUnits="userSpaceOnUse"><stop offset="0" stop-color="#a6a6a6"/><stop offset="1" stop-color="#828282" stop-opacity="0"/></linearGradient><linearGradient id="i" x1="36.433" x2="44.507" y1="56.042" y2="67.639" gradientUnits="userSpaceOnUse"><stop offset="0" stop-color="#3c85ff"/><stop offset="1" stop-color="#95f9ff"/></linearGradient><radialGradient id="c" cx="39" cy="62.362" r="7" gradientTransform="matrix(1.9999 0 0 2.0001 -46.099 898.88)" gradientUnits="userSpaceOnUse"><stop offset="0" stop-color="#919191"/><stop offset="1" stop-color="#e4e4e4"/></radialGradient></defs><g transform="translate(0 -988.36)"><path fill="#fff" d="m12.253 994.45h39.685v51.689h-39.685z"/><use fill="url(#c)" xlink:href="#b"/><g fill="#d3d3d3"><path d="m34 996.36h4v4h-4z"/><path id="e" d="m40 996.36h4v4h-4z"/><path id="d" d="m46 996.36h4v4h-4z"/></g><use fill="url(#c)" xlink:href="#b"/><path fill="#a5ffa8" d="m32 994.36h8l-3e-6 8h-8z"/><use fill="#a8f8ff" xlink:href="#b"/><path fill="#0099a6" d="m45.896 1023.6c0 7.7323-6.2677 14-13.999 14-7.7316 0-13.999-6.268-13.999-14 18.819 15.901 9.7483-13.529 27.998 0"/><path fill="none" stroke="url(#i)" stroke-width="1" d="m40 62.362c.52645.07521.15836.74675-.125.875-.76788.34754-1.5061-.41624-1.625-1.125-.21276-1.2678.93363-2.2948 2.125-2.375 1.7484-.11768 3.0984 1.4549 3.125 3.125.03547 2.2259-1.9772 3.9078-4.125 3.875-2.7027-.04123-4.72-2.4999-4.625-5.125.11511-3.1793 3.0228-5.534 6.125-5.375 3.6559.18735 6.3489 3.5458 6.125 7.125" transform="matrix(1.9603 0 0 2.0019 -46.626 899.52)"/><path fill="#00c808" d="m34 996.36h4v4h-4z"/><g fill="#a1a1a1"><use xlink:href="#e"/><use xlink:href="#d"/></g><path fill="#c4c4c4" d="m22 994.36h2v8h-2z"/><path fill="url(#g)" d="m12 1002.4h40v6h-40z"/><path fill="url(#f)" d="m12 1042.4h40v4h-40z"/><use stroke="silver" transform="matrix(1.9999 0 0 2.0001 -46.099 898.88)" xlink:href="#a"/><path fill="url(#h)" d="m14 998.36h6v4h-6z"/><path fill="#969696" d="m10 992.36v56h44l1e-6 -56zm2 2h40v52h-40z"/><g transform="matrix(1.9999 0 0 2.0001 -46.099 898.88)"><use stroke="silver" xlink:href="#a"/><use stroke="#4c4c4c" xlink:href="#a"/></g><path fill="#939393" d="m17 1020.4h5v6h-5z"/></g></svg>