<svg xmlns="http://www.w3.org/2000/svg" xmlns:xlink="http://www.w3.org/1999/xlink" id="Capa_1" x="0" y="0" version="1.1" viewBox="0 0 60 60" style="enable-background:new 0 0 60 60" xml:space="preserve"><g><path d="M0,0v60h5v-3h50v3h5V0H0z M58,58h-1v-3H3v3H2V2h56V58z"/><path d="M34,32c0.552,0,1-0.447,1-1v-5c0-0.553-0.448-1-1-1s-1,0.447-1,1v5C33,31.553,33.448,32,34,32z"/><path d="M26,25c-0.552,0-1,0.447-1,1v5c0,0.553,0.448,1,1,1s1-0.447,1-1v-5C27,25.447,26.552,25,26,25z"/><path d="M57,54V3H3v51H57z M55,52H31V5h24V52z M5,5h24v47H5V5z"/></g></svg>