<svg xmlns="http://www.w3.org/2000/svg" xmlns:xlink="http://www.w3.org/1999/xlink" id="Capa_1" x="0" y="0" version="1.1" viewBox="0 0 60 60" style="enable-background:new 0 0 60 60" xml:space="preserve"><path d="M0,0v7v23h27v24h-8v6h22v-6h-8V30h18v6.764l-2.895,5.789c-0.155,0.31-0.139,0.678,0.044,0.973S48.653,44,49,44h6	c0.347,0,0.668-0.18,0.851-0.475s0.199-0.663,0.044-0.973L53,36.764V30h7V7V0H0z M50.618,42L52,39.236L53.382,42H50.618z M2,2h56v3	H2V2z M39,56v2H21v-2h6h6H39z M31,54h-2V30h2V54z M58,28H33h-6H2V7h56V28z"/></svg>