<svg xmlns="http://www.w3.org/2000/svg" xmlns:xlink="http://www.w3.org/1999/xlink" id="Capa_1" x="0" y="0" version="1.1" viewBox="0 0 60 60" style="enable-background:new 0 0 60 60" xml:space="preserve"><g><path d="M60,0H0v9h1v51h18V48h38V9h3V0z M3,9h1v49H3V9z M8,9v49H6V9H8z M11,9v49h-1V9H11z M14,9v49h-1V9H14z M17,58h-1V9h1v4v29v6 V58z M19,13h8v29h-8V13z M55,46H19v-2h10V11H19V9h36V46z M58,7h-1H19h-2H2V2h56V7z"/><path d="M31,44h22V11H31v14h-1v5h1V44z M33,27h5v1h-5h-1v-1H33z M40,30v-5h-7V13h18v29H33V30H40z"/></g></svg>